:SAMPLES-PER-SECOND 30
:FRAME-RANGE 1-1390
:FULLY-SPECIFIED
:DEGREES
1347
root  -44.7316 37.8026 61.3401 -0.762909 74.4217 -2.13788
RightUpLeg  9.74893 -6.02706 -1.08115
RightLeg  23.5862 0.21623 -0.117814
RightFoot  -21.4525 0.450888 6.73601
RightToes  6.35937e-011 1.2921e-014 -6.02303e-014
Spine  -3.4976 2.08178 5.12989
Spine1  9.01928 2.79039 -3.60136
HEad  5.19641 44.5171 -7.81774
LeftShoulder1  0.783176 0.332632 -20.1313
LeftArm  -7.58753 16.6403 -52.978
LeftForeArm  39.8783 7.49807 -11.3909
LeftHand  -0.0177424 5.27834 2.92775
RightShoulder  1.95698 3.1712 24.12
RightArm  -23.6581 20.2585 52.5161
RightForeArm  69.8698 -5.16777 2.66305
RightHand  0.228529 -7.10794 -16.5768
LeftUpLeg  -27.0474 -8.77026 -0.764815
LeftLeg  14.5152 12.5746 4.57716
LeftFoot  1.58089 0.212486 -1.96123
LeftToes  4.52251e-011 4.07896e-011 -5.42348e-012
1348
root  -43.4194 37.8246 61.6082 0.912201 75.585 -0.447388
RightUpLeg  8.86078 -5.75385 -1.93638
RightLeg  29.191 1.27906 0.539455
RightFoot  -18.9584 0.523223 9.77453
RightToes  6.35937e-011 1.2921e-014 -6.02303e-014
Spine  -3.57408 2.03122 4.66176
Spine1  8.75863 2.88489 -4.3262
HEad  5.25393 43.9642 -7.45013
LeftShoulder1  0.846171 0.0497841 -19.7531
LeftArm  -7.88039 16.1638 -53.248
LeftForeArm  40.0781 7.48873 -11.3575
LeftHand  -0.0184639 5.25787 2.87415
RightShoulder  1.93787 3.06116 24.3517
RightArm  -25.1453 18.2624 53.6492
RightForeArm  71.0512 -4.98468 1.84927
RightHand  0.224161 -7.11977 -16.2096
LeftUpLeg  -26.6554 -10.0756 -1.44196
LeftLeg  17.478 12.2675 4.6827
LeftFoot  1.24313 0.214384 -2.01298
LeftToes  4.52251e-011 4.07896e-011 -5.42348e-012
1349
root  -42.1482 37.9118 61.8313 1.89908 76.1558 0.645233
RightUpLeg  6.45133 -7.43798 -4.06685
RightLeg  37.1782 4.407 3.32041
RightFoot  -14.0269 0.17909 11.6781
RightToes  6.35937e-011 1.2921e-014 -6.02303e-014
Spine  -3.74518 2.25209 4.38691
Spine1  8.89729 3.19712 -5.00594
HEad  6.06946 43.9229 -6.81909
LeftShoulder1  0.833811 0.0746122 -19.5566
LeftArm  -7.55761 15.3228 -53.6101
LeftForeArm  40.7333 7.4914 -11.4631
LeftHand  -0.0241652 5.28543 2.47052
RightShoulder  1.96467 3.14926 24.3539
RightArm  -25.7827 16.1227 54.2857
RightForeArm  71.5212 -4.93129 1.64296
RightHand  0.208911 -7.0943 -15.4849
LeftUpLeg  -25.3672 -9.74669 -2.57011
LeftLeg  18.8267 11.0875 4.51471
LeftFoot  1.91776 -0.0601821 0.417996
LeftToes  4.52251e-011 4.07896e-011 -5.42348e-012
1350
root  -40.9087 37.9924 62.0508 3.82901 76.8555 2.80243
RightUpLeg  2.68671 -8.93466 -5.84373
RightLeg  46.4564 4.43049 4.66329
RightFoot  -7.22123 -0.515322 12.9039
RightToes  6.35937e-011 1.2921e-014 -6.02303e-014
Spine  -3.72459 2.25117 3.52366
Spine1  8.69518 3.19651 -5.13583
HEad  6.57087 44.1342 -6.05278
LeftShoulder1  0.815066 0.143303 -19.5216
LeftArm  -7.06614 14.6463 -53.7238
LeftForeArm  40.9356 7.26523 -11.4962
LeftHand  -0.0281726 5.30482 2.26087
RightShoulder  1.95386 3.07009 24.5717
RightArm  -26.0124 14.4879 54.7188
RightForeArm  72.165 -4.90655 1.64792
RightHand  0.142855 -6.70389 -14.3186
LeftUpLeg  -23.8412 -9.77393 -3.89839
LeftLeg  20.1631 10.3112 4.49366
LeftFoot  1.05252 -0.314415 2.83674
LeftToes  4.52251e-011 4.07896e-011 -5.42348e-012
1351
root  -39.6825 38.0722 62.269 5.47833 77.7122 5.0639
RightUpLeg  -1.29005 -10.2472 -7.13599
RightLeg  55.0146 2.67145 3.69526
RightFoot  0.859222 -1.32165 12.377
RightToes  6.35937e-011 1.2921e-014 -6.02303e-014
Spine  -3.54947 2.06189 2.7668
Spine1  8.60894 3.01043 -5.06304
HEad  6.39461 44.5809 -5.67845
LeftShoulder1  0.831942 0.118926 -19.8787
LeftArm  -6.02888 13.4039 -53.2979
LeftForeArm  40.6661 6.18903 -11.8049
LeftHand  -0.0303147 5.15756 2.29134
RightShoulder  1.94963 2.98176 24.9522
RightArm  -26.3384 13.3285 54.8932
RightForeArm  72.9778 -4.85769 1.55145
RightHand  0.13763 -6.73153 -13.6544
LeftUpLeg  -21.7892 -9.70628 -5.1696
LeftLeg  21.5169 9.57045 4.46519
LeftFoot  -0.993007 -0.351617 3.94803
LeftToes  4.52251e-011 4.07896e-011 -5.42348e-012
1352
root  -38.5644 38.0613 62.482 7.35504 78.3244 7.53156
RightUpLeg  -4.76215 -11.2027 -7.95611
RightLeg  61.3953 0.753615 0.980235
RightFoot  1.60937 -1.12929 10.0229
RightToes  6.35937e-011 1.2921e-014 -6.02303e-014
Spine  -3.31561 1.98268 2.09993
Spine1  8.69619 2.9101 -5.51028
HEad  6.71158 44.9192 -5.26447
LeftShoulder1  0.842385 0.107691 -20.1307
LeftArm  -5.25571 11.4555 -53.0306
LeftForeArm  41.175 5.81282 -11.9828
LeftHand  -0.0331899 5.02567 2.73849
RightShoulder  1.92715 2.83572 25.3386
RightArm  -27.4709 12.0609 55.0717
RightForeArm  73.658 -4.73219 0.972685
RightHand  0.145304 -6.81096 -13.5472
LeftUpLeg  -20.1585 -9.73163 -6.2706
LeftLeg  23.3262 9.12285 4.62552
LeftFoot  -3.17569 -0.301036 4.48396
LeftToes  4.52251e-011 4.07896e-011 -5.42348e-012
1353
root  -37.4535 38.1043 62.7018 8.54022 78.9148 9.34152
RightUpLeg  -7.55039 -11.8482 -8.42452
RightLeg  64.8891 -0.62188 -2.06603
RightFoot  -1.89567 -0.690731 8.19002
RightToes  6.35937e-011 1.2921e-014 -6.02303e-014
Spine  -3.26141 1.89196 1.45593
Spine1  8.78554 2.70054 -5.53197
HEad  8.33148 45.0278 -4.34733
LeftShoulder1  0.850984 0.109534 -20.4351
LeftArm  -3.89301 9.19304 -52.8216
LeftForeArm  40.9738 5.46551 -12.4078
LeftHand  -0.0374438 5.2495 2.8348
RightShoulder  1.87811 2.64668 25.5145
RightArm  -28.7469 10.5603 55.1502
RightForeArm  73.7689 -4.62188 0.350544
RightHand  0.163281 -6.92373 -13.8976
LeftUpLeg  -18.0239 -9.96826 -7.12493
LeftLeg  24.3627 9.02371 4.78489
LeftFoot  -5.29073 -0.222323 4.80777
LeftToes  4.52251e-011 4.07896e-011 -5.42348e-012
